<svg width="15" height="17" viewBox="0 0 15 17" fill="#828FA3" xmlns="http://www.w3.org/2000/svg">
<path d="M0.5 0C0.223858 0 0 0.223858 0 0.5L0 11.5C0 11.7761 0.223858 12 0.5 12L9.96192 12C10.4082 12 10.6309 12.5403 10.3142 12.8548L7.93102 15.2215C7.7346 15.4165 7.73404 15.734 7.92979 15.9298L8.64645 16.6464C8.84171 16.8417 9.15829 16.8417 9.35355 16.6464L14.6464 11.3536C14.8417 11.1583 14.8417 10.8417 14.6464 10.6464L9.3317 5.3317C9.13521 5.13521 8.81621 5.13662 8.62147 5.33484L7.92232 6.04647C7.73001 6.24222 7.7314 6.5564 7.92544 6.75044L10.3214 9.14645C10.6364 9.46143 10.4133 10 9.96789 10L2.5 10C2.22386 10 2 9.77614 2 9.5L2 0.5C2 0.223858 1.77614 0 1.5 0H0.5Z" fill="#828FA3"/>
</svg>
