<svg width="82" height="33" viewBox="0 0 82 33" fill="none" xmlns="http://www.w3.org/2000/svg">
<path d="M81.6725 23.7862C81.6725 26.6328 81.6725 29.4794 81.6725 32.3259C81.6371 32.3613 81.6076 32.3967 81.5723 32.432C80.2403 32.432 78.9084 32.432 77.5824 32.4379C77.547 31.7778 77.5116 31.1119 77.4763 30.4518C77.4645 29.3851 77.4527 28.3242 77.435 27.2575C77.3289 27.2104 77.217 27.1279 77.1109 27.1279C75.1248 27.1279 73.1445 27.1396 71.1584 27.1455C69.1134 27.1455 67.0624 27.1396 65.0174 27.1396C62.0176 27.1337 59.0237 27.1337 56.0239 27.1337C55.9414 27.1337 55.8589 27.1868 55.7822 27.2163C55.0338 27.2163 54.2853 27.2222 53.5368 27.2222C53.4956 27.2398 53.4543 27.2575 53.4072 27.2752V32.3377C51.9632 32.3377 50.5842 32.3377 49.2051 32.3377C49.2051 31.9311 49.2051 31.5244 49.2051 31.1178C49.211 28.8547 49.2051 26.5857 49.2463 24.3225C49.2522 23.9277 49.376 23.4857 49.5764 23.1497C53.7902 16.1659 58.0277 9.19388 62.2592 2.22185C62.713 1.47338 63.1904 0.73669 63.656 0C64.9172 0 66.1725 0 67.4337 0C69.2195 2.95855 71.0111 5.91709 72.7909 8.88153C75.6788 13.6965 78.5607 18.5115 81.4426 23.3265C81.4957 23.4208 81.5369 23.521 81.5841 23.6212C81.6135 23.6802 81.643 23.7332 81.6725 23.7862ZM65.5065 4.92109C61.8938 10.9737 58.3224 16.9498 54.7273 22.9729H76.1679C72.6023 16.938 69.078 10.9678 65.5065 4.92109Z" fill="#2D2A29"/>
<path d="M0.0942948 23.6388C1.4557 21.3815 2.80531 19.1243 4.17261 16.873C7.39636 11.5512 10.626 6.2352 13.8498 0.919253C14.0325 0.618683 14.2211 0.324007 14.4096 0.0293314C15.6944 0.0293314 16.9733 0.0234375 18.2581 0.0234375C20.3091 3.46525 22.36 6.91296 24.4227 10.3489C27.0041 14.6511 29.5972 18.9475 32.1845 23.2498C32.2847 23.4207 32.3731 23.5975 32.4615 23.7743C32.4615 26.6327 32.4615 29.491 32.4615 32.3435C32.0548 32.3847 31.6482 32.4496 31.2415 32.4555C30.2868 32.4731 29.332 32.4614 28.2653 32.4614V27.2692C28.1356 27.222 28.0119 27.1277 27.8822 27.1277C25.9256 27.1277 23.9689 27.1395 22.0123 27.1454C19.9672 27.1454 17.9163 27.1395 15.8712 27.1395C12.8714 27.1395 9.87753 27.1336 6.87773 27.1336C6.79522 27.1336 6.71271 27.1867 6.6361 27.2161C5.88762 27.2161 5.13915 27.2161 4.39067 27.2161C4.34352 27.2279 4.29048 27.2456 4.24333 27.2574C4.21976 27.2927 4.20797 27.334 4.20208 27.3811C4.17261 27.6169 4.11957 27.8467 4.11367 28.0825C4.10189 29.5323 4.10189 30.988 4.09599 32.4378C2.76406 32.4378 1.43802 32.4378 0.106083 32.4378C0.0707215 32.4024 0.0353611 32.3612 0 32.3258C0.00589352 29.7916 0.00589244 27.2574 0.011786 24.7232C0.03536 24.3637 0.0648272 23.9983 0.0942948 23.6388ZM26.8037 23.0199C26.845 23.0023 26.8862 22.9846 26.9334 22.961C23.409 16.9732 19.8788 10.9854 16.3074 4.90916C12.6946 10.9618 9.12906 16.9319 5.49865 23.0023C5.84047 23.0023 6.07621 23.0023 6.31195 23.0023C13.1425 23.0082 19.9731 23.014 26.8037 23.0199Z" fill="#2D2A29"/>
<path d="M27.7397 0.0234375C30.1855 4.10764 32.6313 8.18596 35.0772 12.2702C36.9041 15.3289 38.7252 18.3876 40.5522 21.4464C40.6288 21.5701 40.7172 21.688 40.8764 21.912C45.3554 14.5627 49.7815 7.29604 54.2075 0.0293314C55.7929 0.0293314 57.3841 0.0352253 58.9695 0.0352253C57.0128 3.35328 55.0503 6.67132 53.0995 9.98937C51.2784 13.0776 49.4632 16.1717 47.648 19.2658C46.1805 21.7587 44.7013 24.2399 43.2515 26.7446C43.0747 27.0511 42.9804 27.446 42.9745 27.7996C42.9391 29.3083 42.945 30.823 42.9391 32.3376C42.9037 32.3729 42.8743 32.4083 42.8389 32.4437C41.507 32.4437 40.1809 32.4496 38.849 32.4496C38.8431 31.2826 38.849 30.1157 38.8313 28.9429C38.8254 28.3771 38.7724 27.8173 38.7429 27.2515C37.0102 24.2281 35.2775 21.2047 33.5448 18.1814C32.3131 16.0361 31.0814 13.8968 29.8496 11.7574C27.6042 7.85003 25.3587 3.94852 23.1074 0.0411173C24.6456 0.0293303 26.1956 0.0234375 27.7397 0.0234375Z" fill="#2D2A29"/>
</svg>
