<svg width="82" height="33" viewBox="0 0 82 33" fill="none" xmlns="http://www.w3.org/2000/svg">
<path d="M81.6725 23.7862C81.6725 26.6328 81.6725 29.4794 81.6725 32.3259C81.6371 32.3613 81.6076 32.3967 81.5723 32.432C80.2403 32.432 78.9084 32.432 77.5824 32.4379C77.547 31.7778 77.5116 31.1119 77.4763 30.4518C77.4645 29.3851 77.4527 28.3242 77.435 27.2575C77.3289 27.2104 77.217 27.1279 77.1109 27.1279C75.1248 27.1279 73.1445 27.1396 71.1584 27.1455C69.1134 27.1455 67.0624 27.1396 65.0174 27.1396C62.0176 27.1337 59.0237 27.1337 56.0239 27.1337C55.9414 27.1337 55.8589 27.1868 55.7822 27.2163C55.0338 27.2163 54.2853 27.2222 53.5368 27.2222C53.4956 27.2398 53.4543 27.2575 53.4072 27.2752V32.3377C51.9632 32.3377 50.5842 32.3377 49.2051 32.3377C49.2051 31.9311 49.2051 31.5244 49.2051 31.1178C49.211 28.8547 49.2051 26.5857 49.2463 24.3225C49.2522 23.9277 49.376 23.4857 49.5764 23.1497C53.7902 16.1659 58.0277 9.19388 62.2592 2.22185C62.713 1.47338 63.1904 0.73669 63.656 0C64.9172 0 66.1725 0 67.4337 0C69.2195 2.95855 71.0111 5.91709 72.7909 8.88153C75.6788 13.6965 78.5607 18.5115 81.4426 23.3265C81.4957 23.4208 81.5369 23.521 81.5841 23.6212C81.6135 23.6802 81.643 23.7332 81.6725 23.7862ZM65.5065 4.92109C61.8938 10.9737 58.3224 16.9498 54.7273 22.9729H76.1679C72.6023 16.938 69.078 10.9678 65.5065 4.92109Z" fill="#E56F21"/>
<path d="M0.0942948 23.639C1.4557 21.3818 2.80531 19.1246 4.17261 16.8732C7.39636 11.5514 10.626 6.23545 13.8498 0.919497C14.0325 0.618928 14.2211 0.324251 14.4096 0.0295755C15.6944 0.0295755 16.9733 0.0236816 18.2581 0.0236816C20.3091 3.4655 22.36 6.9132 24.4227 10.3491C27.0041 14.6514 29.5972 18.9478 32.1845 23.25C32.2847 23.4209 32.3731 23.5977 32.4615 23.7746C32.4615 26.6329 32.4615 29.4913 32.4615 32.3437C32.0548 32.385 31.6482 32.4498 31.2415 32.4557C30.2868 32.4734 29.332 32.4616 28.2653 32.4616V27.2694C28.1356 27.2223 28.0119 27.128 27.8822 27.128C25.9256 27.128 23.9689 27.1398 22.0123 27.1456C19.9672 27.1456 17.9163 27.1397 15.8712 27.1397C12.8714 27.1397 9.87753 27.1339 6.87773 27.1339C6.79522 27.1339 6.71271 27.1869 6.6361 27.2164C5.88762 27.2164 5.13915 27.2164 4.39067 27.2164C4.34352 27.2282 4.29048 27.2458 4.24333 27.2576C4.21976 27.293 4.20797 27.3342 4.20208 27.3814C4.17261 27.6171 4.11957 27.847 4.11367 28.0827C4.10189 29.5325 4.10189 30.9882 4.09599 32.438C2.76406 32.438 1.43802 32.438 0.106083 32.438C0.0707215 32.4027 0.0353611 32.3614 0 32.326C0.00589352 29.7918 0.00589244 27.2576 0.011786 24.7234C0.03536 24.3639 0.0648272 23.9985 0.0942948 23.639ZM26.8037 23.0202C26.845 23.0025 26.8862 22.9848 26.9334 22.9612C23.409 16.9734 19.8788 10.9856 16.3074 4.90941C12.6946 10.962 9.12906 16.9322 5.49865 23.0025C5.84047 23.0025 6.07621 23.0025 6.31195 23.0025C13.1425 23.0084 19.9731 23.0143 26.8037 23.0202Z" fill="#E56F21"/>
<path d="M27.7397 0.0236816C30.1855 4.10789 32.6313 8.1862 35.0772 12.2704C36.9041 15.3291 38.7252 18.3879 40.5522 21.4466C40.6288 21.5704 40.7172 21.6882 40.8764 21.9122C45.3554 14.563 49.7815 7.29628 54.2075 0.0295755C55.7929 0.0295755 57.3841 0.0354694 58.9695 0.0354694C57.0128 3.35352 55.0503 6.67157 53.0995 9.98962C51.2784 13.0778 49.4632 16.1719 47.648 19.266C46.1805 21.759 44.7013 24.2401 43.2515 26.7449C43.0747 27.0513 42.9804 27.4462 42.9745 27.7998C42.9391 29.3086 42.945 30.8232 42.9391 32.3378C42.9037 32.3732 42.8743 32.4086 42.8389 32.4439C41.507 32.4439 40.1809 32.4498 38.849 32.4498C38.8431 31.2829 38.849 30.116 38.8313 28.9432C38.8254 28.3774 38.7724 27.8175 38.7429 27.2517C37.0102 24.2284 35.2775 21.205 33.5448 18.1816C32.3131 16.0364 31.0814 13.897 29.8496 11.7577C27.6042 7.85027 25.3587 3.94876 23.1074 0.0413615C24.6456 0.0295744 26.1956 0.0236816 27.7397 0.0236816Z" fill="#E56F21"/>
</svg>
